<svg version="1.1" id="Layer_1" xmlns="http://www.w3.org/2000/svg" xmlns:xlink="http://www.w3.org/1999/xlink" x="0px" y="0px"
	 width="100%" viewBox="0 0 180 180" enable-background="new 0 0 180 180" xml:space="preserve">
<path fill="#010000" opacity="1.000000" stroke="none" 
	d="
M110.000000,181.000000 
	C73.333336,181.000000 37.166672,181.000000 1.000005,181.000000 
	C1.000003,121.000008 1.000003,61.000011 1.000002,1.000013 
	C60.999989,1.000009 120.999977,1.000009 180.999969,1.000004 
	C180.999985,60.999985 180.999985,120.999969 181.000000,180.999969 
	C157.500000,181.000000 134.000000,181.000000 110.000000,181.000000 
M90.960281,38.903641 
	C90.209778,38.452663 89.453377,37.603966 88.709732,37.615009 
	C83.740669,37.688824 78.774323,37.945969 73.110619,37.685921 
	C61.390602,37.815929 49.670563,37.943985 37.950970,38.104946 
	C37.838905,38.106483 37.732845,38.545536 37.600502,38.830967 
	C45.211029,39.608604 52.819988,40.386082 60.428951,41.163559 
	C60.411182,41.774189 60.393417,42.384823 60.375652,42.995453 
	C53.702118,42.995453 47.028580,42.995453 40.355045,42.995453 
	C40.337341,43.645042 40.319633,44.294636 40.301929,44.944225 
	C43.156624,45.350250 46.011318,45.756271 48.990696,46.180027 
	C48.448524,47.969860 48.029724,49.352425 47.885910,49.827187 
	C45.734932,51.076542 44.251926,51.937916 42.768925,52.799286 
	C44.358089,53.242043 45.932430,53.754227 47.542713,54.098061 
	C48.339207,54.268131 49.201954,54.125294 50.034706,54.128616 
	C56.509251,54.154446 57.480324,55.681938 55.903999,61.970024 
	C55.302891,64.367912 55.806225,67.042656 55.806225,69.591225 
	C56.095459,71.007614 55.351448,72.402702 54.834877,73.877449 
	C54.794514,73.992676 56.301479,74.861137 57.160889,75.045151 
	C61.873413,76.054184 66.608284,76.958862 71.335480,77.899384 
	C71.281609,78.482109 71.227730,79.064842 71.173851,79.647568 
	C63.708046,79.647568 56.242237,79.647568 48.776428,79.647568 
	C50.189667,80.870445 51.661983,80.775360 53.025597,81.115746 
	C54.060646,81.374107 54.957325,82.186806 55.915577,82.752853 
	C55.041515,83.242516 54.211121,83.850410 53.282837,84.193275 
	C51.990086,84.670753 50.624073,84.949875 49.289413,85.313889 
	C51.189697,87.101349 53.846672,87.136620 54.564514,88.334213 
	C56.676270,91.857315 59.756107,91.151848 62.788979,91.230011 
	C67.265503,91.345375 72.143623,90.394630 76.122032,91.866936 
	C81.868759,93.993637 88.892502,90.191010 93.602829,95.969048 
	C105.094902,95.969841 116.587173,95.996254 128.078583,95.909218 
	C128.784775,95.903870 129.484161,95.002838 130.186722,94.518555 
	C129.561188,93.952515 128.985626,92.968185 128.302216,92.886536 
	C122.788857,92.227867 117.265526,91.482231 111.725288,91.259735 
	C103.827393,90.942543 95.562180,92.678329 89.045715,85.335907 
	C89.995636,85.044601 91.344307,84.756203 92.578918,84.209991 
	C93.455879,83.822006 94.179001,83.086304 94.970779,82.505791 
	C94.096588,82.015274 93.272987,81.294487 92.336243,81.088646 
	C90.959259,80.786057 89.501480,80.851158 88.078117,80.759621 
	C88.083809,80.392593 88.089500,80.025574 88.095192,79.658554 
	C95.572029,79.658554 103.048866,79.658554 110.525711,79.658554 
	C110.588593,79.219604 110.651474,78.780655 110.714355,78.341705 
	C106.803680,77.248215 102.891891,76.158722 98.982880,75.059326 
	C97.351501,74.600510 95.726051,74.120613 94.097908,73.650307 
	C94.870583,72.265274 95.643257,70.880241 96.469658,69.398903 
	C93.658463,66.401497 93.658463,66.401497 95.191666,61.593800 
	C96.868393,56.336063 95.367569,54.148327 90.028404,54.102478 
	C87.432175,54.080185 84.835602,54.098621 82.239182,54.098621 
	C82.096634,53.492817 81.954094,52.887009 81.811546,52.281204 
	C83.564812,51.652241 85.318077,51.023277 87.226120,50.338791 
	C87.484596,49.008430 87.757080,47.605911 88.039185,46.153900 
	C85.107529,45.638031 82.498840,45.178989 79.890152,44.719952 
	C79.939323,43.996586 79.988503,43.273224 80.037674,42.549862 
	C86.727692,42.549862 93.417709,42.549862 100.107727,42.549862 
	C100.061081,42.240173 100.014427,41.930489 99.967773,41.620800 
	C97.032906,40.930187 94.098030,40.239574 90.960281,38.903641 
M95.045433,106.192848 
	C96.232201,105.575111 97.418968,104.957375 98.716042,104.282219 
	C97.192726,103.874168 95.762825,103.491142 94.332932,103.108116 
	C99.638550,101.204674 105.921242,103.860283 110.151268,98.501961 
	C90.291847,97.782402 70.584435,93.987465 50.766193,96.594551 
	C50.754471,97.140251 50.742748,97.685959 50.731026,98.231659 
	C57.329536,98.231659 63.928047,98.231659 71.028221,98.231659 
	C66.302673,104.175079 59.970669,100.826797 53.474983,102.895508 
	C56.397305,103.596626 57.887215,103.954086 58.737297,104.158043 
	C57.865841,105.104073 56.990536,106.054283 55.566296,107.564789 
	C53.819366,107.954857 52.072433,108.344925 50.325504,108.734993 
	C50.380211,109.090363 50.434921,109.445740 50.489632,109.801109 
	C53.687294,109.801109 56.884956,109.801109 60.911610,109.933197 
	C62.121887,112.696899 62.128349,112.800545 59.705948,112.951622 
	C56.884975,113.127556 52.631916,111.957352 51.492348,113.374802 
	C48.232048,117.430115 44.325047,115.392960 40.732006,115.977905 
	C37.870113,116.443832 35.010773,116.925430 32.150299,117.400070 
	C32.211082,117.902443 32.271870,118.404823 32.332653,118.907196 
	C43.856419,118.907196 55.380188,118.907196 66.903954,118.907196 
	C66.904884,119.384605 66.905815,119.862007 66.906746,120.339417 
	C62.002224,120.339417 57.097702,120.339417 52.193180,120.339417 
	C52.195091,120.988319 52.197006,121.637215 52.198921,122.286118 
	C57.671906,122.286118 63.144890,122.286118 68.617874,122.286118 
	C68.610985,122.925262 68.604095,123.564415 68.597206,124.203560 
	C55.667969,124.203560 42.738728,124.203560 29.809488,124.203560 
	C29.667393,124.773552 29.525295,125.343552 29.383200,125.913544 
	C30.564278,126.508125 31.710453,127.511803 32.933361,127.616150 
	C35.911026,127.870216 38.928822,127.615364 41.920689,127.763130 
	C42.930267,127.812988 44.728222,128.377792 44.773689,128.843246 
	C45.113316,132.319916 47.658634,131.447113 49.641003,131.499878 
	C56.162544,131.673386 56.163509,131.637283 56.070084,138.225922 
	C55.989590,143.902786 57.020481,145.068909 62.376720,145.072845 
	C86.534836,145.090591 110.693024,145.100189 134.851028,145.047424 
	C137.113556,145.042496 139.375092,144.580032 141.669601,144.326401 
	C142.028992,140.879089 142.716248,137.923569 142.462830,135.051025 
	C142.350632,133.779160 140.515137,132.017334 139.142868,131.640793 
	C136.757355,130.986252 134.124161,131.234344 131.594818,131.103989 
	C131.383392,130.564697 131.171967,130.025406 130.960526,129.486115 
	C132.406540,128.244568 133.852570,127.003006 135.298584,125.761452 
	C135.592331,126.397026 135.886078,127.032608 136.179825,127.668190 
	C130.691498,127.668190 125.200813,127.753761 119.716621,127.603088 
	C118.473030,127.568916 117.251961,126.714958 116.020523,126.238342 
	C116.129570,125.604660 116.238609,124.970985 116.347656,124.337303 
	C129.241043,124.337303 142.134445,124.337303 155.027832,124.337303 
	C155.029404,123.583641 155.030975,122.829971 155.032547,122.076309 
	C149.440735,122.076309 143.848923,122.076309 138.257095,122.076309 
	C138.273270,121.449486 138.289429,120.822670 138.305588,120.195847 
	C143.472244,120.195847 148.638885,120.195847 153.805527,120.195847 
	C153.809052,119.672035 153.812561,119.148232 153.816086,118.624420 
	C142.131393,118.624420 130.446701,118.624420 118.762009,118.624420 
	C118.757919,118.086678 118.753822,117.548935 118.749733,117.011192 
	C124.112343,116.498550 129.474960,115.985916 134.837570,115.473282 
	C134.845978,115.053200 134.854385,114.633118 134.862793,114.213036 
	C133.216644,113.969528 131.572769,113.535355 129.923981,113.515793 
	C123.094009,113.434731 116.256378,113.304558 109.434044,113.545624 
	C105.615005,113.680565 102.178467,113.601883 99.898361,109.092072 
	C98.334091,108.369286 96.769829,107.646492 95.045433,106.192848 
z"/>
<path fill="#F90000" opacity="1.000000" stroke="none" 
	d="
M100.087624,109.781441 
	C102.178467,113.601883 105.615005,113.680565 109.434044,113.545624 
	C116.256378,113.304558 123.094009,113.434731 129.923981,113.515793 
	C131.572769,113.535355 133.216644,113.969528 134.862793,114.213036 
	C134.854385,114.633118 134.845978,115.053200 134.837570,115.473282 
	C129.474960,115.985916 124.112343,116.498550 118.749733,117.011192 
	C118.753822,117.548935 118.757919,118.086678 118.762009,118.624420 
	C130.446701,118.624420 142.131393,118.624420 153.816086,118.624420 
	C153.812561,119.148232 153.809052,119.672035 153.805527,120.195847 
	C148.638885,120.195847 143.472244,120.195847 138.305588,120.195847 
	C138.289429,120.822670 138.273270,121.449486 138.257095,122.076309 
	C143.848923,122.076309 149.440735,122.076309 155.032547,122.076309 
	C155.030975,122.829971 155.029404,123.583641 155.027832,124.337303 
	C142.134445,124.337303 129.241043,124.337303 116.347656,124.337303 
	C116.238609,124.970985 116.129570,125.604660 116.020523,126.238342 
	C117.251961,126.714958 118.473030,127.568916 119.716621,127.603088 
	C125.200813,127.753761 130.691498,127.668190 136.179825,127.668190 
	C135.886078,127.032608 135.592331,126.397026 135.298584,125.761452 
	C133.852570,127.003006 132.406540,128.244568 130.960526,129.486115 
	C131.171967,130.025406 131.383392,130.564697 131.594818,131.103989 
	C134.124161,131.234344 136.757355,130.986252 139.142868,131.640793 
	C140.515137,132.017334 142.350632,133.779160 142.462830,135.051025 
	C142.716248,137.923569 142.028992,140.879089 141.669601,144.326401 
	C139.375092,144.580032 137.113556,145.042496 134.851028,145.047424 
	C110.693024,145.100189 86.534836,145.090591 62.376720,145.072845 
	C57.020481,145.068909 55.989590,143.902786 56.070084,138.225922 
	C56.163509,131.637283 56.162544,131.673386 49.641003,131.499878 
	C47.658634,131.447113 45.113316,132.319916 44.773689,128.843246 
	C44.728222,128.377792 42.930267,127.812988 41.920689,127.763130 
	C38.928822,127.615364 35.911026,127.870216 32.933361,127.616150 
	C31.710453,127.511803 30.564278,126.508125 29.383200,125.913544 
	C29.525295,125.343552 29.667393,124.773552 29.809488,124.203560 
	C42.738728,124.203560 55.667969,124.203560 68.597206,124.203560 
	C68.604095,123.564415 68.610985,122.925262 68.617874,122.286118 
	C63.144890,122.286118 57.671906,122.286118 52.198921,122.286118 
	C52.197006,121.637215 52.195091,120.988319 52.193180,120.339417 
	C57.097702,120.339417 62.002224,120.339417 66.906746,120.339417 
	C66.905815,119.862007 66.904884,119.384605 66.903954,118.907196 
	C55.380188,118.907196 43.856419,118.907196 32.332653,118.907196 
	C32.271870,118.404823 32.211082,117.902443 32.150299,117.400070 
	C35.010773,116.925430 37.870113,116.443832 40.732006,115.977905 
	C44.325047,115.392960 48.232048,117.430115 51.492348,113.374802 
	C52.631916,111.957352 56.884975,113.127556 59.705948,112.951622 
	C62.128349,112.800545 62.121887,112.696899 60.460846,109.502869 
	C58.711803,108.383194 57.413517,107.693840 56.115234,107.004486 
	C56.990536,106.054283 57.865841,105.104073 58.737297,104.158043 
	C57.887215,103.954086 56.397305,103.596626 53.474983,102.895508 
	C59.970669,100.826797 66.302673,104.175079 71.028221,98.231659 
	C63.928047,98.231659 57.329536,98.231659 50.731026,98.231659 
	C50.742748,97.685959 50.754471,97.140251 50.766193,96.594551 
	C70.584435,93.987465 90.291847,97.782402 110.151268,98.501961 
	C105.921242,103.860283 99.638550,101.204674 94.332932,103.108116 
	C95.762825,103.491142 97.192726,103.874168 98.716042,104.282219 
	C97.418968,104.957375 96.232201,105.575111 94.906082,106.867851 
	C93.143677,107.935875 91.520630,108.328903 89.897591,108.721924 
	C89.938721,109.075096 89.979843,109.428268 90.020973,109.781441 
	C93.376526,109.781441 96.732071,109.781441 100.087624,109.781441 
M95.501266,112.994347 
	C94.323563,113.086601 93.145859,113.178864 91.968147,113.271118 
	C91.982796,113.403282 91.997437,113.535454 92.012077,113.667618 
	C94.378227,113.667618 96.744377,113.667618 99.110527,113.667618 
	C99.112007,113.487076 99.113487,113.306526 99.114967,113.125984 
	C98.144432,113.082298 97.173889,113.038612 95.501266,112.994347 
z"/>
<path fill="#F80000" opacity="1.000000" stroke="none" 
	d="
M91.163162,39.548962 
	C94.098030,40.239574 97.032906,40.930187 99.967773,41.620800 
	C100.014427,41.930489 100.061081,42.240173 100.107727,42.549862 
	C93.417709,42.549862 86.727692,42.549862 80.037674,42.549862 
	C79.988503,43.273224 79.939323,43.996586 79.890152,44.719952 
	C82.498840,45.178989 85.107529,45.638031 88.039185,46.153900 
	C87.757080,47.605911 87.484596,49.008430 87.226120,50.338791 
	C85.318077,51.023277 83.564812,51.652241 81.811546,52.281204 
	C81.954094,52.887009 82.096634,53.492817 82.239182,54.098621 
	C84.835602,54.098621 87.432175,54.080185 90.028404,54.102478 
	C95.367569,54.148327 96.868393,56.336063 95.191666,61.593800 
	C93.658463,66.401497 93.658463,66.401497 96.469658,69.398903 
	C95.643257,70.880241 94.870583,72.265274 94.097908,73.650307 
	C95.726051,74.120613 97.351501,74.600510 98.982880,75.059326 
	C102.891891,76.158722 106.803680,77.248215 110.714355,78.341705 
	C110.651474,78.780655 110.588593,79.219604 110.525711,79.658554 
	C103.048866,79.658554 95.572029,79.658554 88.095192,79.658554 
	C88.089500,80.025574 88.083809,80.392593 88.078117,80.759621 
	C89.501480,80.851158 90.959259,80.786057 92.336243,81.088646 
	C93.272987,81.294487 94.096588,82.015274 94.970779,82.505791 
	C94.179001,83.086304 93.455879,83.822006 92.578918,84.209991 
	C91.344307,84.756203 89.995636,85.044601 89.045715,85.335907 
	C95.562180,92.678329 103.827393,90.942543 111.725288,91.259735 
	C117.265526,91.482231 122.788857,92.227867 128.302216,92.886536 
	C128.985626,92.968185 129.561188,93.952515 130.186722,94.518555 
	C129.484161,95.002838 128.784775,95.903870 128.078583,95.909218 
	C116.587173,95.996254 105.094902,95.969841 93.602829,95.969048 
	C88.892502,90.191010 81.868759,93.993637 76.122032,91.866936 
	C72.143623,90.394630 67.265503,91.345375 62.788979,91.230011 
	C59.756107,91.151848 56.676270,91.857315 54.564514,88.334213 
	C53.846672,87.136620 51.189697,87.101349 49.289413,85.313889 
	C50.624073,84.949875 51.990086,84.670753 53.282837,84.193275 
	C54.211121,83.850410 55.041515,83.242516 55.915577,82.752846 
	C54.957325,82.186806 54.060646,81.374107 53.025597,81.115746 
	C51.661983,80.775360 50.189667,80.870445 48.776428,79.647568 
	C56.242237,79.647568 63.708046,79.647568 71.173851,79.647568 
	C71.227730,79.064842 71.281609,78.482109 71.335480,77.899384 
	C66.608284,76.958862 61.873413,76.054184 57.160889,75.045151 
	C56.301479,74.861137 54.794514,73.992676 54.834877,73.877449 
	C55.351448,72.402702 56.095459,71.007614 55.806225,69.591225 
	C55.806225,67.042656 55.302891,64.367912 55.903999,61.970024 
	C57.480324,55.681938 56.509251,54.154446 50.034706,54.128616 
	C49.201954,54.125294 48.339207,54.268131 47.542713,54.098061 
	C45.932430,53.754227 44.358089,53.242043 42.768925,52.799286 
	C44.251926,51.937916 45.734932,51.076542 47.885910,49.827187 
	C48.029724,49.352425 48.448524,47.969860 48.990696,46.180027 
	C46.011318,45.756271 43.156624,45.350250 40.301929,44.944225 
	C40.319633,44.294636 40.337341,43.645042 40.355045,42.995453 
	C47.028580,42.995453 53.702118,42.995453 60.375652,42.995453 
	C60.393417,42.384823 60.411182,41.774189 60.428951,41.163559 
	C52.819988,40.386082 45.211029,39.608604 37.600502,38.830967 
	C37.732845,38.545536 37.838905,38.106483 37.950970,38.104946 
	C49.670563,37.943985 61.390602,37.815929 73.655258,38.255737 
	C79.854317,39.066689 85.508743,39.307823 91.163162,39.548962 
z"/>
<path fill="#4C0000" opacity="1.000000" stroke="none" 
	d="
M91.061722,39.226303 
	C85.508743,39.307823 79.854317,39.066689 74.003494,38.484573 
	C78.774323,37.945969 83.740669,37.688824 88.709732,37.615009 
	C89.453377,37.603966 90.209778,38.452663 91.061722,39.226303 
z"/>
<path fill="#4C0000" opacity="1.000000" stroke="none" 
	d="
M99.992996,109.436752 
	C96.732071,109.781441 93.376526,109.781441 90.020973,109.781441 
	C89.979843,109.428268 89.938721,109.075096 89.897591,108.721924 
	C91.520630,108.328903 93.143677,107.935875 94.986145,107.233276 
	C96.769829,107.646492 98.334091,108.369286 99.992996,109.436752 
z"/>
<path fill="#AF0000" opacity="1.000000" stroke="none" 
	d="
M55.840763,107.284637 
	C57.413517,107.693840 58.711803,108.383194 60.046352,109.436829 
	C56.884956,109.801109 53.687294,109.801109 50.489632,109.801109 
	C50.434921,109.445740 50.380211,109.090363 50.325504,108.734993 
	C52.072433,108.344925 53.819366,107.954857 55.840763,107.284637 
z"/>
<path fill="#850000" opacity="1.000000" stroke="none" 
	d="
M95.852310,112.994637 
	C97.173889,113.038612 98.144432,113.082298 99.114967,113.125984 
	C99.113487,113.306526 99.112007,113.487076 99.110527,113.667618 
	C96.744377,113.667618 94.378227,113.667618 92.012077,113.667618 
	C91.997437,113.535454 91.982796,113.403282 91.968147,113.271118 
	C93.145859,113.178864 94.323563,113.086601 95.852310,112.994637 
z"/>
</svg>